<mxfile host="app.diagrams.net" modified="2020-11-27T02:30:50.350Z" agent="5.0 (Windows NT 10.0; Win64; x64) AppleWebKit/537.36 (KHTML, like Gecko) Chrome/86.0.4240.198 Safari/537.36" etag="SrznKDZJRpYgwKeEWwNh" version="13.10.3" type="github">
  <diagram id="aIBNMCLB5vegAtX76ae7" name="Page-1">
    <mxGraphModel dx="1422" dy="794" grid="1" gridSize="10" guides="1" tooltips="1" connect="1" arrows="1" fold="1" page="1" pageScale="1" pageWidth="827" pageHeight="1169" math="0" shadow="0">
      <root>
        <mxCell id="0" />
        <mxCell id="1" parent="0" />
        <mxCell id="1z75fBFgBHhC1uhvndQV-83" value="" style="rounded=1;whiteSpace=wrap;html=1;absoluteArcSize=1;arcSize=14;strokeWidth=2;" parent="1" vertex="1">
          <mxGeometry x="440" y="240" width="190" height="400" as="geometry" />
        </mxCell>
        <mxCell id="1z75fBFgBHhC1uhvndQV-82" value="" style="rounded=1;whiteSpace=wrap;html=1;absoluteArcSize=1;arcSize=14;strokeWidth=2;" parent="1" vertex="1">
          <mxGeometry x="240" y="435" width="180" height="205" as="geometry" />
        </mxCell>
        <mxCell id="1z75fBFgBHhC1uhvndQV-54" value="" style="rounded=1;whiteSpace=wrap;html=1;absoluteArcSize=1;arcSize=14;strokeWidth=2;" parent="1" vertex="1">
          <mxGeometry x="660" y="50" width="510" height="590" as="geometry" />
        </mxCell>
        <mxCell id="1z75fBFgBHhC1uhvndQV-52" value="" style="rounded=1;whiteSpace=wrap;html=1;absoluteArcSize=1;arcSize=14;strokeWidth=2;fillColor=#d5e8d4;strokeColor=#82b366;" parent="1" vertex="1">
          <mxGeometry x="1200" y="490" width="170" height="280" as="geometry" />
        </mxCell>
        <mxCell id="1z75fBFgBHhC1uhvndQV-47" value="" style="rounded=1;whiteSpace=wrap;html=1;absoluteArcSize=1;arcSize=14;strokeWidth=2;fillColor=#dae8fc;strokeColor=#6c8ebf;" parent="1" vertex="1">
          <mxGeometry x="450" y="50" width="170" height="140" as="geometry" />
        </mxCell>
        <mxCell id="1z75fBFgBHhC1uhvndQV-1" value="MS2_4C Control platform( Two cores CPU, Higher proirity Tasks 1~4)" style="shape=process;whiteSpace=wrap;align=center;verticalAlign=middle;size=0.0475;fontStyle=1;strokeWidth=3;fillColor=#FFCCCC" parent="1" vertex="1">
          <mxGeometry x="250" y="745" width="730" height="50" as="geometry" />
        </mxCell>
        <mxCell id="1z75fBFgBHhC1uhvndQV-2" value="&lt;p style=&quot;margin: 0px ; margin-top: 4px ; text-align: center ; text-decoration: underline&quot;&gt;&lt;strong&gt;&lt;strong&gt;Task&lt;/strong&gt;&amp;nbsp;main&lt;br&gt;&lt;/strong&gt;&lt;/p&gt;&lt;hr&gt;&lt;p style=&quot;margin: 0px ; margin-left: 8px&quot;&gt;&lt;br&gt;&lt;/p&gt;" style="verticalAlign=middle;align=center;overflow=fill;fontSize=12;fontFamily=Helvetica;html=1;rounded=1;fontStyle=1;strokeWidth=3;fillColor=#E6FFCC" parent="1" vertex="1">
          <mxGeometry x="260" y="655" width="130" height="50" as="geometry" />
        </mxCell>
        <mxCell id="1z75fBFgBHhC1uhvndQV-80" value="" style="edgeStyle=orthogonalEdgeStyle;rounded=0;orthogonalLoop=1;jettySize=auto;html=1;" parent="1" source="1z75fBFgBHhC1uhvndQV-3" target="1z75fBFgBHhC1uhvndQV-4" edge="1">
          <mxGeometry relative="1" as="geometry" />
        </mxCell>
        <mxCell id="1z75fBFgBHhC1uhvndQV-3" value="&lt;div style=&quot;color: rgb(212 , 212 , 212) ; background-color: rgb(30 , 30 , 30) ; font-family: &amp;#34;consolas&amp;#34; , &amp;#34;courier new&amp;#34; , monospace ; font-size: 14px ; line-height: 19px&quot;&gt;&lt;span style=&quot;color: #569cd6&quot;&gt;xQueueHandle&lt;/span&gt;&lt;/div&gt;&lt;div style=&quot;color: rgb(212 , 212 , 212) ; background-color: rgb(30 , 30 , 30) ; font-family: &amp;#34;consolas&amp;#34; , &amp;#34;courier new&amp;#34; , monospace ; font-size: 14px ; line-height: 19px&quot;&gt;&amp;nbsp;sensorReadingQueue&lt;/div&gt;" style="rounded=1;whiteSpace=wrap;html=1;absoluteArcSize=1;arcSize=14;strokeWidth=2;" parent="1" vertex="1">
          <mxGeometry x="250" y="552.5" width="160" height="70" as="geometry" />
        </mxCell>
        <mxCell id="qpSUApoE_brRs-mtpVLS-2" value="" style="edgeStyle=orthogonalEdgeStyle;rounded=0;orthogonalLoop=1;jettySize=auto;html=1;" edge="1" parent="1" source="1z75fBFgBHhC1uhvndQV-4" target="qpSUApoE_brRs-mtpVLS-1">
          <mxGeometry relative="1" as="geometry" />
        </mxCell>
        <mxCell id="1z75fBFgBHhC1uhvndQV-4" value="&lt;div style=&quot;color: rgb(212 , 212 , 212) ; background-color: rgb(30 , 30 , 30) ; font-family: &amp;#34;consolas&amp;#34; , &amp;#34;courier new&amp;#34; , monospace ; font-size: 14px ; line-height: 19px&quot;&gt;wifiInit()&lt;/div&gt;" style="rounded=1;whiteSpace=wrap;html=1;absoluteArcSize=1;arcSize=14;strokeWidth=2;" parent="1" vertex="1">
          <mxGeometry x="250" y="495" width="160" height="40" as="geometry" />
        </mxCell>
        <mxCell id="qpSUApoE_brRs-mtpVLS-4" value="" style="edgeStyle=orthogonalEdgeStyle;rounded=0;orthogonalLoop=1;jettySize=auto;html=1;" edge="1" parent="1" source="1z75fBFgBHhC1uhvndQV-5" target="qpSUApoE_brRs-mtpVLS-3">
          <mxGeometry relative="1" as="geometry" />
        </mxCell>
        <mxCell id="1z75fBFgBHhC1uhvndQV-5" value="&lt;div style=&quot;color: rgb(212 , 212 , 212) ; background-color: rgb(30 , 30 , 30) ; font-family: &amp;#34;consolas&amp;#34; , &amp;#34;courier new&amp;#34; , monospace ; font-size: 14px ; line-height: 19px&quot;&gt;&lt;span style=&quot;font-family: &amp;#34;consolas&amp;#34; , &amp;#34;courier new&amp;#34; , monospace&quot;&gt;SensorReading&lt;/span&gt;&lt;/div&gt;" style="rounded=1;whiteSpace=wrap;html=1;absoluteArcSize=1;arcSize=14;strokeWidth=2;" parent="1" vertex="1">
          <mxGeometry x="467.5" y="580" width="130" height="40" as="geometry" />
        </mxCell>
        <mxCell id="1z75fBFgBHhC1uhvndQV-7" value="&lt;p style=&quot;margin: 0px ; margin-top: 4px ; text-align: center ; text-decoration: underline&quot;&gt;&lt;strong&gt;&lt;strong&gt;SensorReading Task&lt;/strong&gt;&amp;nbsp;&lt;br&gt;&lt;/strong&gt;&lt;/p&gt;&lt;hr&gt;&lt;p style=&quot;margin: 0px ; margin-left: 8px&quot;&gt;&lt;br&gt;&lt;/p&gt;" style="verticalAlign=middle;align=center;overflow=fill;fontSize=12;fontFamily=Helvetica;html=1;rounded=1;fontStyle=1;strokeWidth=3;fillColor=#E6FFCC" parent="1" vertex="1">
          <mxGeometry x="490" y="655" width="130" height="50" as="geometry" />
        </mxCell>
        <mxCell id="1z75fBFgBHhC1uhvndQV-81" value="" style="edgeStyle=orthogonalEdgeStyle;rounded=0;orthogonalLoop=1;jettySize=auto;html=1;entryX=0;entryY=0.5;entryDx=0;entryDy=0;entryPerimeter=0;" parent="1" source="1z75fBFgBHhC1uhvndQV-8" target="1z75fBFgBHhC1uhvndQV-10" edge="1">
          <mxGeometry relative="1" as="geometry">
            <Array as="points">
              <mxPoint x="650" y="290" />
              <mxPoint x="650" y="586" />
            </Array>
          </mxGeometry>
        </mxCell>
        <mxCell id="1z75fBFgBHhC1uhvndQV-8" value="&lt;div style=&quot;color: rgb(212 , 212 , 212) ; background-color: rgb(30 , 30 , 30) ; font-family: &amp;#34;consolas&amp;#34; , &amp;#34;courier new&amp;#34; , monospace ; font-size: 14px ; line-height: 19px&quot;&gt;&lt;span style=&quot;font-family: &amp;#34;consolas&amp;#34; , &amp;#34;courier new&amp;#34; , monospace&quot;&gt;QueueSend(Data)&lt;/span&gt;&lt;/div&gt;" style="rounded=1;whiteSpace=wrap;html=1;absoluteArcSize=1;arcSize=14;strokeWidth=2;" parent="1" vertex="1">
          <mxGeometry x="490" y="270" width="130" height="40" as="geometry" />
        </mxCell>
        <mxCell id="1z75fBFgBHhC1uhvndQV-9" value="&lt;p style=&quot;margin: 0px ; margin-top: 4px ; text-align: center ; text-decoration: underline&quot;&gt;&lt;strong&gt;&lt;strong&gt;Waiting Sensor&amp;nbsp;&lt;/strong&gt;&lt;/strong&gt;&lt;/p&gt;&lt;p style=&quot;margin: 0px ; margin-top: 4px ; text-align: center ; text-decoration: underline&quot;&gt;&lt;strong&gt;&lt;strong&gt;Reading Task&lt;/strong&gt;&amp;nbsp;&lt;br&gt;&lt;/strong&gt;&lt;/p&gt;&lt;hr&gt;&lt;p style=&quot;margin: 0px ; margin-left: 8px&quot;&gt;&lt;br&gt;&lt;/p&gt;" style="verticalAlign=middle;align=center;overflow=fill;fontSize=12;fontFamily=Helvetica;html=1;rounded=1;fontStyle=1;strokeWidth=3;fillColor=#E6FFCC" parent="1" vertex="1">
          <mxGeometry x="750" y="655" width="130" height="50" as="geometry" />
        </mxCell>
        <mxCell id="1z75fBFgBHhC1uhvndQV-12" value="" style="edgeStyle=orthogonalEdgeStyle;rounded=0;orthogonalLoop=1;jettySize=auto;html=1;" parent="1" source="1z75fBFgBHhC1uhvndQV-10" target="1z75fBFgBHhC1uhvndQV-11" edge="1">
          <mxGeometry relative="1" as="geometry" />
        </mxCell>
        <mxCell id="1z75fBFgBHhC1uhvndQV-32" value="" style="edgeStyle=orthogonalEdgeStyle;rounded=0;orthogonalLoop=1;jettySize=auto;html=1;" parent="1" source="1z75fBFgBHhC1uhvndQV-10" target="1z75fBFgBHhC1uhvndQV-13" edge="1">
          <mxGeometry relative="1" as="geometry" />
        </mxCell>
        <mxCell id="1z75fBFgBHhC1uhvndQV-10" value="QUEUEReceived" style="strokeWidth=2;html=1;shape=mxgraph.flowchart.decision;whiteSpace=wrap;" parent="1" vertex="1">
          <mxGeometry x="740" y="562.5" width="140" height="47.5" as="geometry" />
        </mxCell>
        <mxCell id="1z75fBFgBHhC1uhvndQV-14" value="" style="edgeStyle=orthogonalEdgeStyle;rounded=0;orthogonalLoop=1;jettySize=auto;html=1;" parent="1" source="1z75fBFgBHhC1uhvndQV-11" target="1z75fBFgBHhC1uhvndQV-13" edge="1">
          <mxGeometry relative="1" as="geometry" />
        </mxCell>
        <mxCell id="1z75fBFgBHhC1uhvndQV-18" value="" style="edgeStyle=orthogonalEdgeStyle;rounded=0;orthogonalLoop=1;jettySize=auto;html=1;exitX=1;exitY=0.5;exitDx=0;exitDy=0;" parent="1" source="1z75fBFgBHhC1uhvndQV-46" target="1z75fBFgBHhC1uhvndQV-17" edge="1">
          <mxGeometry relative="1" as="geometry">
            <Array as="points">
              <mxPoint x="640" y="150" />
              <mxPoint x="640" y="285" />
            </Array>
          </mxGeometry>
        </mxCell>
        <mxCell id="1z75fBFgBHhC1uhvndQV-11" value="Wifi_Start()" style="whiteSpace=wrap;html=1;strokeWidth=2;" parent="1" vertex="1">
          <mxGeometry x="750" y="505" width="120" height="30" as="geometry" />
        </mxCell>
        <mxCell id="1z75fBFgBHhC1uhvndQV-62" value="" style="edgeStyle=orthogonalEdgeStyle;rounded=0;orthogonalLoop=1;jettySize=auto;html=1;" parent="1" source="1z75fBFgBHhC1uhvndQV-13" target="1z75fBFgBHhC1uhvndQV-15" edge="1">
          <mxGeometry relative="1" as="geometry" />
        </mxCell>
        <mxCell id="1z75fBFgBHhC1uhvndQV-13" value="MQTT_Logic" style="whiteSpace=wrap;html=1;strokeWidth=2;" parent="1" vertex="1">
          <mxGeometry x="750" y="445" width="120" height="35" as="geometry" />
        </mxCell>
        <mxCell id="1z75fBFgBHhC1uhvndQV-15" value="ALY MQTT &lt;br&gt;signature init" style="whiteSpace=wrap;html=1;strokeWidth=2;" parent="1" vertex="1">
          <mxGeometry x="750" y="350" width="120" height="55" as="geometry" />
        </mxCell>
        <mxCell id="1z75fBFgBHhC1uhvndQV-61" value="" style="edgeStyle=orthogonalEdgeStyle;rounded=0;orthogonalLoop=1;jettySize=auto;html=1;" parent="1" source="1z75fBFgBHhC1uhvndQV-17" edge="1">
          <mxGeometry relative="1" as="geometry">
            <mxPoint x="757.5000000000005" y="202.5" as="targetPoint" />
          </mxGeometry>
        </mxCell>
        <mxCell id="1z75fBFgBHhC1uhvndQV-17" value="Command:&lt;br&gt;WIFI_Connected" style="whiteSpace=wrap;html=1;strokeWidth=2;fillColor=#fff2cc;strokeColor=#d6b656;" parent="1" vertex="1">
          <mxGeometry x="690" y="268.75" width="135" height="32.5" as="geometry" />
        </mxCell>
        <mxCell id="1z75fBFgBHhC1uhvndQV-22" value="" style="edgeStyle=orthogonalEdgeStyle;rounded=0;orthogonalLoop=1;jettySize=auto;html=1;" parent="1" source="1z75fBFgBHhC1uhvndQV-19" target="1z75fBFgBHhC1uhvndQV-21" edge="1">
          <mxGeometry relative="1" as="geometry" />
        </mxCell>
        <mxCell id="1z75fBFgBHhC1uhvndQV-19" value="WIFI_Connected?" style="rhombus;whiteSpace=wrap;html=1;strokeWidth=2;" parent="1" vertex="1">
          <mxGeometry x="692.5" y="150" width="130" height="50" as="geometry" />
        </mxCell>
        <mxCell id="1z75fBFgBHhC1uhvndQV-21" value="MQTT client start" style="whiteSpace=wrap;html=1;strokeWidth=2;" parent="1" vertex="1">
          <mxGeometry x="697.5" y="70" width="120" height="40" as="geometry" />
        </mxCell>
        <mxCell id="1z75fBFgBHhC1uhvndQV-65" value="" style="edgeStyle=orthogonalEdgeStyle;rounded=0;orthogonalLoop=1;jettySize=auto;html=1;entryX=0.5;entryY=1;entryDx=0;entryDy=0;" parent="1" source="1z75fBFgBHhC1uhvndQV-23" target="1z75fBFgBHhC1uhvndQV-67" edge="1">
          <mxGeometry relative="1" as="geometry" />
        </mxCell>
        <mxCell id="1z75fBFgBHhC1uhvndQV-23" value="Command:&lt;br&gt;MQTT_Connected" style="whiteSpace=wrap;html=1;strokeWidth=2;fillColor=#fff2cc;strokeColor=#d6b656;" parent="1" vertex="1">
          <mxGeometry x="1020" y="265" width="135" height="37.5" as="geometry" />
        </mxCell>
        <mxCell id="1z75fBFgBHhC1uhvndQV-30" value="" style="edgeStyle=orthogonalEdgeStyle;rounded=0;orthogonalLoop=1;jettySize=auto;html=1;" parent="1" source="1z75fBFgBHhC1uhvndQV-25" target="1z75fBFgBHhC1uhvndQV-29" edge="1">
          <mxGeometry relative="1" as="geometry" />
        </mxCell>
        <mxCell id="1z75fBFgBHhC1uhvndQV-25" value="MQTT Event Loop cb" style="whiteSpace=wrap;html=1;strokeWidth=2;" parent="1" vertex="1">
          <mxGeometry x="1220" y="505" width="130" height="35" as="geometry" />
        </mxCell>
        <mxCell id="1z75fBFgBHhC1uhvndQV-64" value="" style="edgeStyle=orthogonalEdgeStyle;rounded=0;orthogonalLoop=1;jettySize=auto;html=1;entryX=0.5;entryY=1;entryDx=0;entryDy=0;" parent="1" source="1z75fBFgBHhC1uhvndQV-29" target="1z75fBFgBHhC1uhvndQV-23" edge="1">
          <mxGeometry relative="1" as="geometry">
            <mxPoint x="1084.9999999999995" y="607.4999999999998" as="targetPoint" />
          </mxGeometry>
        </mxCell>
        <mxCell id="1z75fBFgBHhC1uhvndQV-29" value="MQTT connected?" style="rhombus;whiteSpace=wrap;html=1;strokeWidth=2;" parent="1" vertex="1">
          <mxGeometry x="1210" y="590" width="150" height="40" as="geometry" />
        </mxCell>
        <mxCell id="1z75fBFgBHhC1uhvndQV-33" value="Y" style="text;html=1;align=center;verticalAlign=middle;resizable=0;points=[];autosize=1;" parent="1" vertex="1">
          <mxGeometry x="820" y="545" width="20" height="20" as="geometry" />
        </mxCell>
        <mxCell id="1z75fBFgBHhC1uhvndQV-35" value="Sensor data Publish&amp;nbsp;" style="whiteSpace=wrap;html=1;strokeWidth=2;" parent="1" vertex="1">
          <mxGeometry x="1027.5" y="70" width="120" height="40" as="geometry" />
        </mxCell>
        <mxCell id="1z75fBFgBHhC1uhvndQV-66" value="" style="edgeStyle=orthogonalEdgeStyle;rounded=0;orthogonalLoop=1;jettySize=auto;html=1;entryX=1;entryY=0.5;entryDx=0;entryDy=0;" parent="1" source="1z75fBFgBHhC1uhvndQV-37" target="1z75fBFgBHhC1uhvndQV-39" edge="1">
          <mxGeometry relative="1" as="geometry">
            <mxPoint x="1130" y="707" as="targetPoint" />
          </mxGeometry>
        </mxCell>
        <mxCell id="1z75fBFgBHhC1uhvndQV-37" value="Event Published&amp;nbsp;" style="rhombus;whiteSpace=wrap;html=1;strokeWidth=2;" parent="1" vertex="1">
          <mxGeometry x="1210" y="640" width="150" height="40" as="geometry" />
        </mxCell>
        <mxCell id="1z75fBFgBHhC1uhvndQV-40" value="" style="edgeStyle=orthogonalEdgeStyle;rounded=0;orthogonalLoop=1;jettySize=auto;html=1;" parent="1" source="1z75fBFgBHhC1uhvndQV-38" target="1z75fBFgBHhC1uhvndQV-39" edge="1">
          <mxGeometry relative="1" as="geometry" />
        </mxCell>
        <mxCell id="1z75fBFgBHhC1uhvndQV-38" value="Event Data" style="rhombus;whiteSpace=wrap;html=1;strokeWidth=2;" parent="1" vertex="1">
          <mxGeometry x="1210" y="690" width="150" height="40" as="geometry" />
        </mxCell>
        <mxCell id="1z75fBFgBHhC1uhvndQV-44" value="" style="edgeStyle=orthogonalEdgeStyle;rounded=0;orthogonalLoop=1;jettySize=auto;html=1;" parent="1" source="1z75fBFgBHhC1uhvndQV-39" target="1z75fBFgBHhC1uhvndQV-43" edge="1">
          <mxGeometry relative="1" as="geometry">
            <Array as="points">
              <mxPoint x="1035" y="390" />
              <mxPoint x="927" y="390" />
            </Array>
          </mxGeometry>
        </mxCell>
        <mxCell id="1z75fBFgBHhC1uhvndQV-39" value="Code = 200" style="rhombus;whiteSpace=wrap;html=1;strokeWidth=2;" parent="1" vertex="1">
          <mxGeometry x="960" y="665" width="150" height="40" as="geometry" />
        </mxCell>
        <mxCell id="1z75fBFgBHhC1uhvndQV-70" value="" style="edgeStyle=orthogonalEdgeStyle;rounded=0;orthogonalLoop=1;jettySize=auto;html=1;" parent="1" source="1z75fBFgBHhC1uhvndQV-43" target="1z75fBFgBHhC1uhvndQV-69" edge="1">
          <mxGeometry relative="1" as="geometry" />
        </mxCell>
        <mxCell id="1z75fBFgBHhC1uhvndQV-43" value="Command:&lt;br&gt;MQTT Pub succssed" style="whiteSpace=wrap;html=1;strokeWidth=2;fillColor=#fff2cc;strokeColor=#d6b656;" parent="1" vertex="1">
          <mxGeometry x="860" y="270" width="135" height="30" as="geometry" />
        </mxCell>
        <mxCell id="1z75fBFgBHhC1uhvndQV-48" value="" style="edgeStyle=orthogonalEdgeStyle;rounded=0;orthogonalLoop=1;jettySize=auto;html=1;" parent="1" source="1z75fBFgBHhC1uhvndQV-45" target="1z75fBFgBHhC1uhvndQV-46" edge="1">
          <mxGeometry relative="1" as="geometry" />
        </mxCell>
        <mxCell id="1z75fBFgBHhC1uhvndQV-45" value="WIFI Event Loop" style="whiteSpace=wrap;html=1;strokeWidth=2;" parent="1" vertex="1">
          <mxGeometry x="465" y="70" width="130" height="35" as="geometry" />
        </mxCell>
        <mxCell id="1z75fBFgBHhC1uhvndQV-46" value="WIFI connected?" style="rhombus;whiteSpace=wrap;html=1;strokeWidth=2;" parent="1" vertex="1">
          <mxGeometry x="455" y="130" width="150" height="40" as="geometry" />
        </mxCell>
        <mxCell id="1z75fBFgBHhC1uhvndQV-50" value="CASE" style="text;html=1;align=center;verticalAlign=middle;resizable=0;points=[];autosize=1;" parent="1" vertex="1">
          <mxGeometry x="475" y="110" width="50" height="20" as="geometry" />
        </mxCell>
        <mxCell id="1z75fBFgBHhC1uhvndQV-51" value="CASE" style="text;html=1;align=center;verticalAlign=middle;resizable=0;points=[];autosize=1;" parent="1" vertex="1">
          <mxGeometry x="1230" y="560" width="50" height="20" as="geometry" />
        </mxCell>
        <mxCell id="1z75fBFgBHhC1uhvndQV-55" value="TaskNotify" style="text;html=1;align=center;verticalAlign=middle;resizable=0;points=[];autosize=1;" parent="1" vertex="1">
          <mxGeometry x="805" y="240" width="70" height="20" as="geometry" />
        </mxCell>
        <mxCell id="1z75fBFgBHhC1uhvndQV-68" value="" style="edgeStyle=orthogonalEdgeStyle;rounded=0;orthogonalLoop=1;jettySize=auto;html=1;" parent="1" source="1z75fBFgBHhC1uhvndQV-67" target="1z75fBFgBHhC1uhvndQV-35" edge="1">
          <mxGeometry relative="1" as="geometry" />
        </mxCell>
        <mxCell id="1z75fBFgBHhC1uhvndQV-67" value="MQTT_Connected?" style="rhombus;whiteSpace=wrap;html=1;strokeWidth=2;" parent="1" vertex="1">
          <mxGeometry x="1022.5" y="150" width="130" height="50" as="geometry" />
        </mxCell>
        <mxCell id="1z75fBFgBHhC1uhvndQV-72" value="" style="edgeStyle=orthogonalEdgeStyle;rounded=0;orthogonalLoop=1;jettySize=auto;html=1;" parent="1" source="1z75fBFgBHhC1uhvndQV-69" target="1z75fBFgBHhC1uhvndQV-71" edge="1">
          <mxGeometry relative="1" as="geometry" />
        </mxCell>
        <mxCell id="1z75fBFgBHhC1uhvndQV-69" value="MQTT_Connected?" style="rhombus;whiteSpace=wrap;html=1;strokeWidth=2;" parent="1" vertex="1">
          <mxGeometry x="862.5" y="155" width="130" height="50" as="geometry" />
        </mxCell>
        <mxCell id="1z75fBFgBHhC1uhvndQV-71" value="MQTT/WIFI&lt;br&gt;Stop" style="whiteSpace=wrap;html=1;strokeWidth=2;" parent="1" vertex="1">
          <mxGeometry x="867.5" y="70" width="120" height="40" as="geometry" />
        </mxCell>
        <mxCell id="1z75fBFgBHhC1uhvndQV-74" style="edgeStyle=orthogonalEdgeStyle;rounded=0;orthogonalLoop=1;jettySize=auto;html=1;exitX=0.5;exitY=1;exitDx=0;exitDy=0;" parent="1" source="1z75fBFgBHhC1uhvndQV-54" target="1z75fBFgBHhC1uhvndQV-54" edge="1">
          <mxGeometry relative="1" as="geometry" />
        </mxCell>
        <mxCell id="qpSUApoE_brRs-mtpVLS-1" value="&lt;div style=&quot;color: rgb(212 , 212 , 212) ; background-color: rgb(30 , 30 , 30) ; font-family: &amp;#34;consolas&amp;#34; , &amp;#34;courier new&amp;#34; , monospace ; font-size: 14px ; line-height: 19px&quot;&gt;Creat Two tasks&lt;/div&gt;" style="rounded=1;whiteSpace=wrap;html=1;absoluteArcSize=1;arcSize=14;strokeWidth=2;" vertex="1" parent="1">
          <mxGeometry x="250" y="440" width="160" height="40" as="geometry" />
        </mxCell>
        <mxCell id="qpSUApoE_brRs-mtpVLS-6" value="" style="edgeStyle=orthogonalEdgeStyle;rounded=0;orthogonalLoop=1;jettySize=auto;html=1;entryX=0;entryY=0.5;entryDx=0;entryDy=0;exitX=0;exitY=0.5;exitDx=0;exitDy=0;" edge="1" parent="1" source="qpSUApoE_brRs-mtpVLS-3" target="1z75fBFgBHhC1uhvndQV-8">
          <mxGeometry relative="1" as="geometry">
            <Array as="points">
              <mxPoint x="450" y="512" />
              <mxPoint x="450" y="290" />
            </Array>
          </mxGeometry>
        </mxCell>
        <mxCell id="qpSUApoE_brRs-mtpVLS-14" value="" style="edgeStyle=orthogonalEdgeStyle;rounded=0;orthogonalLoop=1;jettySize=auto;html=1;" edge="1" parent="1" source="qpSUApoE_brRs-mtpVLS-3" target="qpSUApoE_brRs-mtpVLS-5">
          <mxGeometry relative="1" as="geometry" />
        </mxCell>
        <mxCell id="qpSUApoE_brRs-mtpVLS-3" value="Warning?" style="rhombus;whiteSpace=wrap;html=1;rounded=1;strokeWidth=2;arcSize=14;" vertex="1" parent="1">
          <mxGeometry x="465" y="490" width="135" height="44.38" as="geometry" />
        </mxCell>
        <mxCell id="qpSUApoE_brRs-mtpVLS-11" value="" style="edgeStyle=orthogonalEdgeStyle;rounded=0;orthogonalLoop=1;jettySize=auto;html=1;entryX=1;entryY=0.5;entryDx=0;entryDy=0;" edge="1" parent="1" source="qpSUApoE_brRs-mtpVLS-5" target="qpSUApoE_brRs-mtpVLS-12">
          <mxGeometry relative="1" as="geometry">
            <mxPoint x="390" y="390" as="targetPoint" />
          </mxGeometry>
        </mxCell>
        <mxCell id="qpSUApoE_brRs-mtpVLS-13" value="" style="edgeStyle=orthogonalEdgeStyle;rounded=0;orthogonalLoop=1;jettySize=auto;html=1;" edge="1" parent="1" source="qpSUApoE_brRs-mtpVLS-5" target="qpSUApoE_brRs-mtpVLS-7">
          <mxGeometry relative="1" as="geometry" />
        </mxCell>
        <mxCell id="qpSUApoE_brRs-mtpVLS-5" value="Handling?" style="rhombus;whiteSpace=wrap;html=1;rounded=1;strokeWidth=2;arcSize=14;" vertex="1" parent="1">
          <mxGeometry x="465" y="405" width="135" height="44.38" as="geometry" />
        </mxCell>
        <mxCell id="qpSUApoE_brRs-mtpVLS-8" value="" style="edgeStyle=orthogonalEdgeStyle;rounded=0;orthogonalLoop=1;jettySize=auto;html=1;entryX=1;entryY=0.5;entryDx=0;entryDy=0;exitX=1;exitY=0.5;exitDx=0;exitDy=0;" edge="1" parent="1" source="qpSUApoE_brRs-mtpVLS-7" target="1z75fBFgBHhC1uhvndQV-5">
          <mxGeometry relative="1" as="geometry" />
        </mxCell>
        <mxCell id="qpSUApoE_brRs-mtpVLS-9" value="" style="edgeStyle=orthogonalEdgeStyle;rounded=0;orthogonalLoop=1;jettySize=auto;html=1;entryX=0;entryY=0.75;entryDx=0;entryDy=0;" edge="1" parent="1" source="qpSUApoE_brRs-mtpVLS-7" target="1z75fBFgBHhC1uhvndQV-8">
          <mxGeometry relative="1" as="geometry" />
        </mxCell>
        <mxCell id="qpSUApoE_brRs-mtpVLS-7" value="Routing?" style="rhombus;whiteSpace=wrap;html=1;rounded=1;strokeWidth=2;arcSize=14;" vertex="1" parent="1">
          <mxGeometry x="465" y="340" width="135" height="44.38" as="geometry" />
        </mxCell>
        <mxCell id="qpSUApoE_brRs-mtpVLS-12" value="Set switches&lt;br&gt;On/Off" style="rounded=1;whiteSpace=wrap;html=1;absoluteArcSize=1;arcSize=14;strokeWidth=2;" vertex="1" parent="1">
          <mxGeometry x="275" y="340" width="100" height="57.5" as="geometry" />
        </mxCell>
        <mxCell id="qpSUApoE_brRs-mtpVLS-15" value="Y" style="text;html=1;align=center;verticalAlign=middle;resizable=0;points=[];autosize=1;" vertex="1" parent="1">
          <mxGeometry x="540" y="320" width="20" height="20" as="geometry" />
        </mxCell>
        <mxCell id="qpSUApoE_brRs-mtpVLS-16" value="Y" style="text;html=1;align=center;verticalAlign=middle;resizable=0;points=[];autosize=1;" vertex="1" parent="1">
          <mxGeometry x="450" y="405" width="20" height="20" as="geometry" />
        </mxCell>
        <mxCell id="qpSUApoE_brRs-mtpVLS-17" value="Y" style="text;html=1;align=center;verticalAlign=middle;resizable=0;points=[];autosize=1;" vertex="1" parent="1">
          <mxGeometry x="450" y="490" width="20" height="20" as="geometry" />
        </mxCell>
      </root>
    </mxGraphModel>
  </diagram>
</mxfile>
